<svg xmlns="http://www.w3.org/2000/svg" style="position:absolute;width:0;height:0;overflow:hidden" aria-hidden="true">
  <!-- Legisly icon sprite — adapted from Lucide v1.17 (ISC license, https://lucide.dev).
       Duotone: strokes inherit currentColor; accent details use var(--ico-accent). -->
  <symbol id="i-bill" viewBox="0 0 24 24">
    <path d="M15 12h-5" stroke="var(--ico-accent, currentColor)" />
    <path d="M15 8h-5" stroke="var(--ico-accent, currentColor)" />
    <path d="M19 17V5a2 2 0 0 0-2-2H4" />
    <path d="M8 21h12a2 2 0 0 0 2-2v-1a1 1 0 0 0-1-1H11a1 1 0 0 0-1 1v1a2 2 0 1 1-4 0V5a2 2 0 1 0-4 0v2a1 1 0 0 0 1 1h3" />
  </symbol>
  <symbol id="i-live" viewBox="0 0 24 24">
    <path d="M16.247 7.761a6 6 0 0 1 0 8.478" />
    <path d="M19.075 4.933a10 10 0 0 1 0 14.134" />
    <path d="M4.925 19.067a10 10 0 0 1 0-14.134" />
    <path d="M7.753 16.239a6 6 0 0 1 0-8.478" />
    <circle cx="12" cy="12" r="2" />
    <circle cx="12" cy="12" r="1.6" fill="var(--ico-accent, currentColor)" stroke="none" />
  </symbol>
  <symbol id="i-report" viewBox="0 0 24 24">
    <path d="M6 22a2 2 0 0 1-2-2V4a2 2 0 0 1 2-2h8a2.4 2.4 0 0 1 1.704.706l3.588 3.588A2.4 2.4 0 0 1 20 8v12a2 2 0 0 1-2 2z" />
    <path d="M14 2v5a1 1 0 0 0 1 1h5" />
    <path d="M8 18v-1" stroke="var(--ico-accent, currentColor)" />
    <path d="M12 18v-6" stroke="var(--ico-accent, currentColor)" />
    <path d="M16 18v-3" stroke="var(--ico-accent, currentColor)" />
  </symbol>
  <symbol id="i-users" viewBox="0 0 24 24">
    <path d="M16 21v-2a4 4 0 0 0-4-4H6a4 4 0 0 0-4 4v2" />
    <path d="M16 3.128a4 4 0 0 1 0 7.744" stroke="var(--ico-accent, currentColor)" />
    <path d="M22 21v-2a4 4 0 0 0-3-3.87" stroke="var(--ico-accent, currentColor)" />
    <circle cx="9" cy="7" r="4" />
  </symbol>
  <symbol id="i-calendar" viewBox="0 0 24 24">
    <path d="M8 2v4" />
    <path d="M16 2v4" />
    <rect width="18" height="18" x="3" y="4" rx="2" />
    <path d="M3 10h18" />
    <path d="m9 16 2 2 4-4" stroke="var(--ico-accent, currentColor)" />
  </symbol>
  <symbol id="i-sparkle" viewBox="0 0 24 24">
    <path d="M11.017 2.814a1 1 0 0 1 1.966 0l1.051 5.558a2 2 0 0 0 1.594 1.594l5.558 1.051a1 1 0 0 1 0 1.966l-5.558 1.051a2 2 0 0 0-1.594 1.594l-1.051 5.558a1 1 0 0 1-1.966 0l-1.051-5.558a2 2 0 0 0-1.594-1.594l-5.558-1.051a1 1 0 0 1 0-1.966l5.558-1.051a2 2 0 0 0 1.594-1.594z" />
    <path d="M20 2v4" stroke="var(--ico-accent, currentColor)" />
    <path d="M22 4h-4" stroke="var(--ico-accent, currentColor)" />
    <circle cx="4" cy="20" r="2" />
  </symbol>
  <symbol id="i-scale" viewBox="0 0 24 24">
    <path d="M12 3v18" />
    <path d="m19 8 3 8a5 5 0 0 1-6 0zV7" />
    <path d="M3 7h1a17 17 0 0 0 8-2 17 17 0 0 0 8 2h1" />
    <path d="m5 8 3 8a5 5 0 0 1-6 0zV7" />
    <path d="M7 21h10" stroke="var(--ico-accent, currentColor)" />
  </symbol>
  <symbol id="i-bolt" viewBox="0 0 24 24">
    <path d="M4 14a1 1 0 0 1-.78-1.63l9.9-10.2a.5.5 0 0 1 .86.46l-1.92 6.02A1 1 0 0 0 13 10h7a1 1 0 0 1 .78 1.63l-9.9 10.2a.5.5 0 0 1-.86-.46l1.92-6.02A1 1 0 0 0 11 14z" />
  </symbol>
  <symbol id="i-heart" viewBox="0 0 24 24">
    <path d="M19.414 14.414C21 12.828 22 11.5 22 9.5a5.5 5.5 0 0 0-9.591-3.676.6.6 0 0 1-.818.001A5.5 5.5 0 0 0 2 9.5c0 2.3 1.5 4 3 5.5l5.535 5.362a2 2 0 0 0 2.879.052 2.12 2.12 0 0 0-.004-3 2.124 2.124 0 1 0 3-3 2.124 2.124 0 0 0 3.004 0 2 2 0 0 0 0-2.828l-1.881-1.882a2.41 2.41 0 0 0-3.409 0l-1.71 1.71a2 2 0 0 1-2.828 0 2 2 0 0 1 0-2.828l2.823-2.762" />
  </symbol>
  <symbol id="i-cycle" viewBox="0 0 24 24">
    <path d="M3 12a9 9 0 0 1 9-9 9.75 9.75 0 0 1 6.74 2.74L21 8" />
    <path d="M21 3v5h-5" stroke="var(--ico-accent, currentColor)" />
    <path d="M21 12a9 9 0 0 1-9 9 9.75 9.75 0 0 1-6.74-2.74L3 16" />
    <path d="M8 16H3v5" stroke="var(--ico-accent, currentColor)" />
  </symbol>
  <symbol id="i-globe" viewBox="0 0 24 24">
    <circle cx="12" cy="12" r="10" />
    <path d="M12 2a14.5 14.5 0 0 0 0 20 14.5 14.5 0 0 0 0-20" stroke="var(--ico-accent, currentColor)" />
    <path d="M2 12h20" stroke="var(--ico-accent, currentColor)" />
  </symbol>
  <symbol id="i-rocket" viewBox="0 0 24 24">
    <path d="M12 15v5s3.03-.55 4-2c1.08-1.62 0-5 0-5" />
    <path d="M4.5 16.5c-1.5 1.26-2 5-2 5s3.74-.5 5-2c.71-.84.7-2.13-.09-2.91a2.18 2.18 0 0 0-2.91-.09" stroke="var(--ico-accent, currentColor)" />
    <path d="M9 12a22 22 0 0 1 2-3.95A12.88 12.88 0 0 1 22 2c0 2.72-.78 7.5-6 11a22.4 22.4 0 0 1-4 2z" />
    <path d="M9 12H4s.55-3.03 2-4c1.62-1.08 5 .05 5 .05" />
  </symbol>
  <symbol id="i-bulb" viewBox="0 0 24 24">
    <path d="M15 14c.2-1 .7-1.7 1.5-2.5 1-.9 1.5-2.2 1.5-3.5A6 6 0 0 0 6 8c0 1 .2 2.2 1.5 3.5.7.7 1.3 1.5 1.5 2.5" />
    <path d="M9 18h6" stroke="var(--ico-accent, currentColor)" />
    <path d="M10 22h4" stroke="var(--ico-accent, currentColor)" />
  </symbol>
  <symbol id="i-chart-up" viewBox="0 0 24 24">
    <path d="M16 7h6v6" stroke="var(--ico-accent, currentColor)" />
    <path d="m22 7-8.5 8.5-5-5L2 17" />
  </symbol>
  <symbol id="i-cpu" viewBox="0 0 24 24">
    <path d="M12 8V4H8" />
    <rect width="16" height="12" x="4" y="8" rx="2" />
    <path d="M2 14h2" />
    <path d="M20 14h2" />
    <path d="M15 13v2" stroke="var(--ico-accent, currentColor)" />
    <path d="M9 13v2" stroke="var(--ico-accent, currentColor)" />
  </symbol>
  <symbol id="i-pie" viewBox="0 0 24 24">
    <path d="M21 12c.552 0 1.005-.449.95-.998a10 10 0 0 0-8.953-8.951c-.55-.055-.998.398-.998.95v8a1 1 0 0 0 1 1z" stroke="var(--ico-accent, currentColor)" />
    <path d="M21.21 15.89A10 10 0 1 1 8 2.83" />
  </symbol>
  <symbol id="i-lock" viewBox="0 0 24 24">
    <circle cx="12" cy="16" r="1" stroke="var(--ico-accent, currentColor)" />
    <rect x="3" y="10" width="18" height="12" rx="2" />
    <path d="M7 10V7a5 5 0 0 1 10 0v3" />
  </symbol>
  <symbol id="i-server" viewBox="0 0 24 24">
    <rect width="20" height="8" x="2" y="2" rx="2" ry="2" />
    <rect width="20" height="8" x="2" y="14" rx="2" ry="2" />
    <line x1="6" x2="6.01" y1="6" y2="6" stroke="var(--ico-accent, currentColor)" />
    <line x1="6" x2="6.01" y1="18" y2="18" stroke="var(--ico-accent, currentColor)" />
  </symbol>
  <symbol id="i-key" viewBox="0 0 24 24">
    <path d="M2.586 17.414A2 2 0 0 0 2 18.828V21a1 1 0 0 0 1 1h3a1 1 0 0 0 1-1v-1a1 1 0 0 1 1-1h1a1 1 0 0 0 1-1v-1a1 1 0 0 1 1-1h.172a2 2 0 0 0 1.414-.586l.814-.814a6.5 6.5 0 1 0-4-4z" />
    <circle cx="16.5" cy="7.5" r=".8" fill="var(--ico-accent, currentColor)" stroke="none" />
  </symbol>
  <symbol id="i-activity" viewBox="0 0 24 24">
    <path d="M22 12h-2.48a2 2 0 0 0-1.93 1.46l-2.35 8.36a.25.25 0 0 1-.48 0L9.24 2.18a.25.25 0 0 0-.48 0l-2.35 8.36A2 2 0 0 1 4.49 12H2" />
  </symbol>
  <symbol id="i-shield" viewBox="0 0 24 24">
    <path d="M20 13c0 5-3.5 7.5-7.66 8.95a1 1 0 0 1-.67-.01C7.5 20.5 4 18 4 13V6a1 1 0 0 1 1-1c2 0 4.5-1.2 6.24-2.72a1.17 1.17 0 0 1 1.52 0C14.51 3.81 17 5 19 5a1 1 0 0 1 1 1z" />
    <path d="m9 12 2 2 4-4" stroke="var(--ico-accent, currentColor)" />
  </symbol>
  <symbol id="i-target" viewBox="0 0 24 24">
    <circle cx="12" cy="12" r="10" />
    <circle cx="12" cy="12" r="6" />
    <circle cx="12" cy="12" r="2" stroke="var(--ico-accent, currentColor)" />
  </symbol>
  <symbol id="i-bell" viewBox="0 0 24 24">
    <path d="M10.268 21a2 2 0 0 0 3.464 0" />
    <path d="M22 8c0-2.3-.8-4.3-2-6" stroke="var(--ico-accent, currentColor)" />
    <path d="M3.262 15.326A1 1 0 0 0 4 17h16a1 1 0 0 0 .74-1.673C19.41 13.956 18 12.499 18 8A6 6 0 0 0 6 8c0 4.499-1.411 5.956-2.738 7.326" />
    <path d="M4 2C2.8 3.7 2 5.7 2 8" stroke="var(--ico-accent, currentColor)" />
  </symbol>
</svg>
